<svg width="44" height="44" viewBox="0 0 44 44" fill="none" xmlns="http://www.w3.org/2000/svg">
<g clip-path="url(#clip0_1_16)">
<g clip-path="url(#clip1_1_16)">
<path d="M31.1667 18.3333H12.8333V12.8333C12.8333 10.4022 13.7991 8.07061 15.5182 6.35152C17.2373 4.63244 19.5689 3.66667 22 3.66667C24.4312 3.66667 26.7627 4.63244 28.4818 6.35152C30.2009 8.07061 31.1667 10.4022 31.1667 12.8333C31.1667 13.3196 31.3598 13.7859 31.7036 14.1297C32.0475 14.4735 32.5138 14.6667 33 14.6667C33.4862 14.6667 33.9526 14.4735 34.2964 14.1297C34.6402 13.7859 34.8333 13.3196 34.8333 12.8333C34.8333 9.42972 33.4813 6.16551 31.0745 3.7588C28.6678 1.35208 25.4036 0 22 0C18.5964 0 15.3322 1.35208 12.9255 3.7588C10.5188 6.16551 9.16667 9.42972 9.16667 12.8333V19.1107C7.53425 19.8239 6.14485 20.997 5.16815 22.4868C4.19144 23.9766 3.66971 25.7186 3.66667 27.5V34.8333C3.66958 37.2636 4.63629 39.5935 6.35474 41.3119C8.07319 43.0304 10.4031 43.9971 12.8333 44H31.1667C33.5969 43.9971 35.9268 43.0304 37.6453 41.3119C39.3637 39.5935 40.3304 37.2636 40.3333 34.8333V27.5C40.3304 25.0697 39.3637 22.7399 37.6453 21.0214C35.9268 19.3029 33.5969 18.3362 31.1667 18.3333ZM36.6667 34.8333C36.6652 36.2916 36.0853 37.6897 35.0541 38.7208C34.023 39.7519 32.6249 40.3319 31.1667 40.3333H12.8333C11.3751 40.3319 9.97699 39.7519 8.94586 38.7208C7.91472 37.6897 7.33479 36.2916 7.33334 34.8333V27.5C7.33479 26.0418 7.91472 24.6437 8.94586 23.6125C9.97699 22.5814 11.3751 22.0015 12.8333 22H31.1667C32.6249 22.0015 34.023 22.5814 35.0541 23.6125C36.0853 24.6437 36.6652 26.0418 36.6667 27.5V34.8333Z" fill="#CCCCCC"/>
<path d="M22 23.8333C20.7042 23.8309 19.4493 24.2871 18.4576 25.1213C17.4659 25.9554 16.8014 27.1136 16.5818 28.3907C16.3622 29.6678 16.6017 30.9814 17.2578 32.0989C17.914 33.2163 18.9444 34.0655 20.1667 34.496V36.6667C20.1667 37.1529 20.3598 37.6192 20.7036 37.963C21.0475 38.3069 21.5138 38.5 22 38.5C22.4862 38.5 22.9525 38.3069 23.2964 37.963C23.6402 37.6192 23.8333 37.1529 23.8333 36.6667V34.496C25.0556 34.0655 26.086 33.2163 26.7422 32.0989C27.3983 30.9814 27.6378 29.6678 27.4182 28.3907C27.1986 27.1136 26.5341 25.9554 25.5424 25.1213C24.5508 24.2871 23.2958 23.8309 22 23.8333ZM22 31.1667C21.6374 31.1667 21.2829 31.0591 20.9815 30.8577C20.68 30.6563 20.445 30.3699 20.3062 30.0349C20.1675 29.6999 20.1312 29.3313 20.2019 28.9757C20.2726 28.62 20.4472 28.2934 20.7036 28.037C20.96 27.7806 21.2867 27.606 21.6423 27.5352C21.998 27.4645 22.3666 27.5008 22.7016 27.6396C23.0366 27.7783 23.3229 28.0133 23.5244 28.3148C23.7258 28.6163 23.8333 28.9707 23.8333 29.3333C23.8328 29.8194 23.6395 30.2855 23.2958 30.6292C22.9521 30.9729 22.4861 31.1662 22 31.1667Z" fill="#CCCCCC"/>
</g>
</g>
<defs>
<clipPath id="clip0_1_16">
<rect width="44" height="44" fill="white"/>
</clipPath>
<clipPath id="clip1_1_16">
<rect width="44" height="44" fill="white"/>
</clipPath>
</defs>
</svg>
