<svg width="38" height="38" viewBox="0 0 38 38" fill="none" xmlns="http://www.w3.org/2000/svg">
<g clip-path="url(#clip0_1_28)">
<path d="M1.58334 19C1.58334 6.33331 6.33334 1.58331 19 1.58331C31.6667 1.58331 36.4167 6.33331 36.4167 19C36.4167 31.6666 31.6667 36.4166 19 36.4166C6.33334 36.4166 1.58334 31.6666 1.58334 19Z" fill="#171717"/>
<path fill-rule="evenodd" clip-rule="evenodd" d="M25.439 11.0891L8.41818 18.2774C8.29474 18.3267 8.18892 18.4119 8.11438 18.522C8.03984 18.6321 8 18.762 8 18.8949C8 19.0278 8.03984 19.1577 8.11438 19.2678C8.18892 19.3779 8.29474 19.4631 8.41818 19.5124L11.5848 20.5099C12.0859 20.6646 12.6155 20.7037 13.1339 20.6242C13.6522 20.5446 14.1457 20.3486 14.5773 20.0507L21.7498 15.0949C21.8011 15.0684 21.8598 15.0603 21.9163 15.0717C21.9728 15.0832 22.0238 15.1135 22.0607 15.1578C22.0976 15.2021 22.1183 15.2577 22.1193 15.3153C22.1204 15.373 22.1018 15.4293 22.0665 15.4749L16.5723 20.7316C16.4326 20.8687 16.3248 21.0351 16.2568 21.2187C16.1888 21.4023 16.1621 21.5987 16.1787 21.7938C16.1954 21.9889 16.2549 22.178 16.353 22.3474C16.4512 22.5169 16.5855 22.6625 16.7465 22.7741L22.6523 26.7641C22.8369 26.8856 23.0489 26.9593 23.2691 26.9783C23.4893 26.9974 23.7107 26.9613 23.9135 26.8733C24.1162 26.7853 24.2938 26.6482 24.4302 26.4743C24.5667 26.3004 24.6576 26.0953 24.6948 25.8774L27.0223 12.3557C27.0582 12.1515 27.0385 11.9414 26.9652 11.7475C26.892 11.5535 26.7679 11.3828 26.606 11.2533C26.4441 11.1238 26.2503 11.0402 26.045 11.0113C25.8397 10.9824 25.6304 11.0093 25.439 11.0891Z" fill="white"/>
</g>
<defs>
<clipPath id="clip0_1_28">
<rect width="38" height="38" fill="white"/>
</clipPath>
</defs>
</svg>
